<?xml version="1.0" encoding="UTF-8"?>
<!DOCTYPE svg PUBLIC "-//W3C//DTD SVG 1.1//EN" "http://www.w3.org/Graphics/SVG/1.1/DTD/svg11.dtd">
<svg xmlns="http://www.w3.org/2000/svg" version="1.1" width="126px" height="137px" style="shape-rendering:geometricPrecision; text-rendering:geometricPrecision; image-rendering:optimizeQuality; fill-rule:evenodd; clip-rule:evenodd" xmlns:xlink="http://www.w3.org/1999/xlink">
<g><path style="opacity:0.937" fill="#10150e" d="M 16.5,0.5 C 20.8333,0.5 25.1667,0.5 29.5,0.5C 30.1834,2.17649 31.5168,2.84316 33.5,2.5C 34.1667,2.5 34.8333,2.5 35.5,2.5C 36.287,4.10422 37.6203,4.77089 39.5,4.5C 39.8333,4.5 40.1667,4.5 40.5,4.5C 43.8794,7.19859 47.546,9.53193 51.5,11.5C 53.8815,14.5483 56.5482,17.2149 59.5,19.5C 61.7481,22.328 63.7481,25.328 65.5,28.5C 66.3864,29.7759 67.3864,29.7759 68.5,28.5C 69.6302,27.3777 70.2969,26.0443 70.5,24.5C 71.4411,22.2279 72.7745,20.2279 74.5,18.5C 78.1667,15.5 81.5,12.1667 84.5,8.5C 86.0269,8.57298 87.0269,7.90632 87.5,6.5C 87.8333,6.5 88.1667,6.5 88.5,6.5C 90.0269,6.57298 91.0269,5.90632 91.5,4.5C 92.5,4.5 93.5,4.5 94.5,4.5C 96.153,4.3404 97.4863,3.67373 98.5,2.5C 99.5,2.5 100.5,2.5 101.5,2.5C 103.898,2.74061 105.898,2.07394 107.5,0.5C 111.437,0.20653 115.27,0.539863 119,1.5C 119.499,6.48892 119.666,11.4889 119.5,16.5C 117.787,17.6354 117.12,19.302 117.5,21.5C 117.5,21.8333 117.5,22.1667 117.5,22.5C 116.542,22.9528 115.708,23.6195 115,24.5C 114.061,27.5995 112.895,30.5995 111.5,33.5C 106.875,40.4589 101.208,46.4589 94.5,51.5C 92.847,51.6596 91.5137,52.3263 90.5,53.5C 88.0274,53.0882 86.6941,54.0882 86.5,56.5C 86.1667,56.5 85.8333,56.5 85.5,56.5C 85.0831,55.8761 84.4164,55.5427 83.5,55.5C 81.6663,56.7545 79.6663,57.4211 77.5,57.5C 75.0504,57.298 72.717,57.6314 70.5,58.5C 69.5028,58.4701 68.8361,58.9701 68.5,60C 67.9376,63.6542 67.271,67.1542 66.5,70.5C 66.5,66.5 66.5,62.5 66.5,58.5C 67.8333,57.8333 68.8333,56.8333 69.5,55.5C 72.8599,55.3841 76.1933,55.0508 79.5,54.5C 86.0084,53.9036 91.3417,51.2369 95.5,46.5C 104.685,40.4635 110.685,32.1301 113.5,21.5C 115.095,18.4431 116.262,15.1098 117,11.5C 117.814,9.09821 117.647,6.76488 116.5,4.5C 109.778,2.73136 103.444,3.39802 97.5,6.5C 95.8333,7.16667 94.1667,7.83333 92.5,8.5C 85.7179,11.761 79.8846,16.4277 75,22.5C 73.1795,24.1458 72.0128,26.1458 71.5,28.5C 69.0453,30.6322 67.3786,33.2988 66.5,36.5C 65.8333,35.1667 65.1667,33.8333 64.5,32.5C 64.0679,31.2905 63.4013,30.2905 62.5,29.5C 62.2624,27.5956 61.2624,26.2623 59.5,25.5C 59.6716,24.5084 59.3382,23.8417 58.5,23.5C 56.9059,20.2358 54.5725,17.5691 51.5,15.5C 50.4154,13.4131 48.7488,12.0798 46.5,11.5C 45.5084,11.6716 44.8417,11.3382 44.5,10.5C 40.0772,7.35233 35.0772,5.35233 29.5,4.5C 25.6888,3.35472 21.6888,3.18806 17.5,4C 16.178,8.26694 16.178,12.4336 17.5,16.5C 17.677,20.7076 19.0103,24.3743 21.5,27.5C 21.7148,29.1788 21.0481,30.1788 19.5,30.5C 18.6618,30.1583 18.3284,29.4916 18.5,28.5C 18.2413,25.7282 17.2413,23.3949 15.5,21.5C 15.2079,16.455 14.5412,11.455 13.5,6.5C 13.9837,4.19917 14.9837,2.19917 16.5,0.5 Z"/></g>
<g><path style="opacity:1" fill="#305214" d="M 28.5,11.5 C 30.8333,13.1667 32.8333,15.1667 34.5,17.5C 34.5,17.8333 34.5,18.1667 34.5,18.5C 31.7573,16.7607 29.7573,14.4274 28.5,11.5 Z"/></g>
<g><path style="opacity:1" fill="#275312" d="M 23.5,11.5 C 26.5725,13.5691 28.9059,16.2358 30.5,19.5C 27.4275,17.4309 25.0941,14.7642 23.5,11.5 Z"/></g>
<g><path style="opacity:1" fill="#183708" d="M 46.5,11.5 C 48.7488,12.0798 50.4154,13.4131 51.5,15.5C 49.9382,15.2671 48.6049,14.6005 47.5,13.5C 47.1667,12.8333 46.8333,12.1667 46.5,11.5 Z"/></g>
<g><path style="opacity:1" fill="#518927" d="M 37.5,8.5 C 39.8333,9.16667 42.1667,9.83333 44.5,10.5C 44.8417,11.3382 45.5084,11.6716 46.5,11.5C 46.8333,12.1667 47.1667,12.8333 47.5,13.5C 46.0695,13.5792 44.7362,13.2458 43.5,12.5C 43.1667,13.3333 42.8333,14.1667 42.5,15C 44.1809,18.5883 44.8476,22.4216 44.5,26.5C 44.1667,26.5 43.8333,26.5 43.5,26.5C 43.5979,24.4471 42.9313,22.7804 41.5,21.5C 41.81,18.2869 41.4767,15.2869 40.5,12.5C 39.791,11.596 38.791,11.2627 37.5,11.5C 38.8333,10.5 38.8333,9.5 37.5,8.5 Z"/></g>
<g><path style="opacity:1" fill="#91d55d" d="M 101.5,7.5 C 102.5,7.5 103.5,7.5 104.5,7.5C 103.957,10.0384 102.957,12.3718 101.5,14.5C 100.833,14.8333 100.167,15.1667 99.5,15.5C 98.5,15.5 97.5,15.5 96.5,15.5C 96.7678,13.901 96.4345,12.5676 95.5,11.5C 95.3893,10.8826 95.056,10.3826 94.5,10C 96.6504,8.58859 98.9837,7.75526 101.5,7.5 Z"/></g>
<g><path style="opacity:1" fill="#5e893f" d="M 97.5,6.5 C 98.8333,6.5 100.167,6.5 101.5,6.5C 101.5,6.83333 101.5,7.16667 101.5,7.5C 98.9837,7.75526 96.6504,8.58859 94.5,10C 95.056,10.3826 95.3893,10.8826 95.5,11.5C 95.1667,11.5 94.8333,11.5 94.5,11.5C 93.8333,11.5 93.1667,11.5 92.5,11.5C 92.5,10.5 92.5,9.5 92.5,8.5C 94.1667,7.83333 95.8333,7.16667 97.5,6.5 Z"/></g>
<g><path style="opacity:1" fill="#6dbe2f" d="M 29.5,5.5 C 32.3267,6.10841 34.9933,7.10841 37.5,8.5C 38.8333,9.5 38.8333,10.5 37.5,11.5C 37.0603,13.8439 36.0603,15.8439 34.5,17.5C 32.8333,15.1667 30.8333,13.1667 28.5,11.5C 26.9639,8.90781 24.6305,7.90781 21.5,8.5C 21.2852,10.1788 21.9519,11.1788 23.5,11.5C 25.0941,14.7642 27.4275,17.4309 30.5,19.5C 30.5,20.8333 30.5,22.1667 30.5,23.5C 27.4041,22.9066 25.0708,23.9066 23.5,26.5C 22.8243,25.3984 22.1577,24.3984 21.5,23.5C 19.8958,22.713 19.2291,21.3797 19.5,19.5C 18.6324,15.1924 18.4657,10.859 19,6.5C 22.3936,5.54416 25.8936,5.21083 29.5,5.5 Z"/></g>
<g><path style="opacity:1" fill="#2c5f0b" d="M 28.5,11.5 C 26.9557,11.2969 25.6223,10.6302 24.5,9.5C 23.7025,9.95689 23.3691,10.6236 23.5,11.5C 21.9519,11.1788 21.2852,10.1788 21.5,8.5C 24.6305,7.90781 26.9639,8.90781 28.5,11.5 Z"/></g>
<g><path style="opacity:1" fill="#78ad4f" d="M 114.5,5.5 C 111.428,5.18259 108.428,5.51592 105.5,6.5C 107.291,7.16985 108.958,7.83652 110.5,8.5C 108.219,8.07729 106.552,8.74395 105.5,10.5C 104.5,11.8333 103.5,13.1667 102.5,14.5C 102.167,14.5 101.833,14.5 101.5,14.5C 102.957,12.3718 103.957,10.0384 104.5,7.5C 103.5,7.5 102.5,7.5 101.5,7.5C 101.5,7.16667 101.5,6.83333 101.5,6.5C 103.848,5.04832 106.514,4.38165 109.5,4.5C 111.369,4.50681 113.036,4.84014 114.5,5.5 Z"/></g>
<g><path style="opacity:0.435" fill="#9e9a9f" d="M 87.5,6.5 C 87.0269,7.90632 86.0269,8.57298 84.5,8.5C 84.9731,7.09368 85.9731,6.42702 87.5,6.5 Z"/></g>
<g><path style="opacity:0.58" fill="#595959" d="M 40.5,4.5 C 48.3232,6.58405 54.6565,10.9174 59.5,17.5C 59.5,18.1667 59.5,18.8333 59.5,19.5C 56.5482,17.2149 53.8815,14.5483 51.5,11.5C 47.546,9.53193 43.8794,7.19859 40.5,4.5 Z"/></g>
<g><path style="opacity:0.38" fill="#8f8d8e" d="M 91.5,4.5 C 91.0269,5.90632 90.0269,6.57298 88.5,6.5C 88.9731,5.09368 89.9731,4.42702 91.5,4.5 Z"/></g>
<g><path style="opacity:1" fill="#2d5610" d="M 29.5,5.5 C 29.5,5.16667 29.5,4.83333 29.5,4.5C 35.0772,5.35233 40.0772,7.35233 44.5,10.5C 42.1667,9.83333 39.8333,9.16667 37.5,8.5C 34.9933,7.10841 32.3267,6.10841 29.5,5.5 Z"/></g>
<g><path style="opacity:1" fill="#447b1c" d="M 29.5,4.5 C 29.5,4.83333 29.5,5.16667 29.5,5.5C 25.8936,5.21083 22.3936,5.54416 19,6.5C 18.4657,10.859 18.6324,15.1924 19.5,19.5C 18.8333,18.5 18.1667,17.5 17.5,16.5C 16.178,12.4336 16.178,8.26694 17.5,4C 21.6888,3.18806 25.6888,3.35472 29.5,4.5 Z"/></g>
<g><path style="opacity:1" fill="#34551f" d="M 113.5,21.5 C 113.923,17.3036 114.59,13.1369 115.5,9C 115.486,7.61527 115.152,6.4486 114.5,5.5C 113.036,4.84014 111.369,4.50681 109.5,4.5C 106.514,4.38165 103.848,5.04832 101.5,6.5C 100.167,6.5 98.8333,6.5 97.5,6.5C 103.444,3.39802 109.778,2.73136 116.5,4.5C 117.647,6.76488 117.814,9.09821 117,11.5C 116.262,15.1098 115.095,18.4431 113.5,21.5 Z"/></g>
<g><path style="opacity:0.357" fill="#6e6877" d="M 98.5,2.5 C 97.4863,3.67373 96.153,4.3404 94.5,4.5C 95.287,2.89578 96.6203,2.22911 98.5,2.5 Z"/></g>
<g><path style="opacity:0.482" fill="#5f5c60" d="M 35.5,2.5 C 37.3797,2.22911 38.713,2.89578 39.5,4.5C 37.6203,4.77089 36.287,4.10422 35.5,2.5 Z"/></g>
<g><path style="opacity:0.941" fill="#45413c" d="M 107.5,0.5 C 105.898,2.07394 103.898,2.74061 101.5,2.5C 103.102,0.926057 105.102,0.25939 107.5,0.5 Z"/></g>
<g><path style="opacity:0.675" fill="#4e5258" d="M 29.5,0.5 C 31.153,0.659599 32.4863,1.32627 33.5,2.5C 31.5168,2.84316 30.1834,2.17649 29.5,0.5 Z"/></g>
<g><path style="opacity:0.686" fill="#645f67" d="M 16.5,0.5 C 14.9837,2.19917 13.9837,4.19917 13.5,6.5C 14.5412,11.455 15.2079,16.455 15.5,21.5C 16.038,23.1172 16.3713,24.7839 16.5,26.5C 15.4415,25.3998 14.6082,24.0664 14,22.5C 12.7253,16.2069 12.392,9.87359 13,3.5C 13.4224,1.5743 14.5891,0.574295 16.5,0.5 Z"/></g>
<g><path style="opacity:0.427" fill="#5c5b5b" d="M 84.5,8.5 C 81.5,12.1667 78.1667,15.5 74.5,18.5C 74.5,18.1667 74.5,17.8333 74.5,17.5C 77.2311,13.7657 80.5644,10.7657 84.5,8.5 Z"/></g>
<g><path style="opacity:1" fill="#16260d" d="M 92.5,11.5 C 93.1667,11.5 93.8333,11.5 94.5,11.5C 94.5,14.5 94.5,17.5 94.5,20.5C 95.5,20.5 96.5,20.5 97.5,20.5C 96.4324,21.4345 95.099,21.7678 93.5,21.5C 93.6602,19.8008 93.4935,18.1341 93,16.5C 92.2177,19.3102 91.3844,21.9768 90.5,24.5C 90.5,21.8333 90.5,19.1667 90.5,16.5C 92.2132,15.3646 92.8799,13.698 92.5,11.5 Z"/></g>
<g><path style="opacity:1" fill="#7baf54" d="M 95.5,11.5 C 96.4345,12.5676 96.7678,13.901 96.5,15.5C 97.5,15.5 98.5,15.5 99.5,15.5C 98.8902,16.391 98.5569,17.391 98.5,18.5C 97.8333,18.5 97.5,18.8333 97.5,19.5C 95.631,17.3647 94.9644,14.6981 95.5,11.5 Z"/></g>
<g><path style="opacity:1" fill="#37521a" d="M 101.5,14.5 C 101.833,14.5 102.167,14.5 102.5,14.5C 101.833,15.5 101.167,16.5 100.5,17.5C 99.8333,17.8333 99.1667,18.1667 98.5,18.5C 98.5569,17.391 98.8902,16.391 99.5,15.5C 100.167,15.1667 100.833,14.8333 101.5,14.5 Z"/></g>
<g><path style="opacity:1" fill="#2e5913" d="M 51.5,15.5 C 54.5725,17.5691 56.9059,20.2358 58.5,23.5C 57.8333,23.1667 57.1667,22.8333 56.5,22.5C 54.4202,20.4268 52.7536,18.0934 51.5,15.5 Z"/></g>
<g><path style="opacity:1" fill="#0b1904" d="M 101.5,18.5 C 101.5,17.8333 101.167,17.5 100.5,17.5C 101.167,16.5 101.833,15.5 102.5,14.5C 103.5,13.1667 104.5,11.8333 105.5,10.5C 107.612,8.83842 108.778,9.17175 109,11.5C 106.63,14.0386 104.13,16.3719 101.5,18.5 Z"/></g>
<g><path style="opacity:1" fill="#4c7c26" d="M 37.5,11.5 C 37.5,13.8333 37.5,16.1667 37.5,18.5C 36.5,18.5 35.5,18.5 34.5,18.5C 34.5,18.1667 34.5,17.8333 34.5,17.5C 36.0603,15.8439 37.0603,13.8439 37.5,11.5 Z"/></g>
<g><path style="opacity:1" fill="#6fc12d" d="M 47.5,13.5 C 48.6049,14.6005 49.9382,15.2671 51.5,15.5C 52.7536,18.0934 54.4202,20.4268 56.5,22.5C 57.1667,24.1667 57.8333,25.8333 58.5,27.5C 58.4232,35.477 57.4232,35.977 55.5,29C 55.1639,27.9701 54.4972,27.4701 53.5,27.5C 54.4998,22.4909 52.8332,20.8243 48.5,22.5C 47.8333,24.5 47.1667,26.5 46.5,28.5C 45.5,28.1667 44.8333,27.5 44.5,26.5C 44.8476,22.4216 44.1809,18.5883 42.5,15C 42.8333,14.1667 43.1667,13.3333 43.5,12.5C 44.7362,13.2458 46.0695,13.5792 47.5,13.5 Z"/></g>
<g><path style="opacity:1" fill="#2b4b12" d="M 37.5,11.5 C 38.791,11.2627 39.791,11.596 40.5,12.5C 38.8235,13.1834 38.1568,14.5168 38.5,16.5C 38.5,17.5 38.5,18.5 38.5,19.5C 36.901,19.7678 35.5676,19.4345 34.5,18.5C 35.5,18.5 36.5,18.5 37.5,18.5C 37.5,16.1667 37.5,13.8333 37.5,11.5 Z"/></g>
<g><path style="opacity:1" fill="#375a23" d="M 110.5,8.5 C 111.573,9.25057 111.74,10.2506 111,11.5C 106.963,15.369 103.13,19.369 99.5,23.5C 98.596,24.209 98.2627,25.209 98.5,26.5C 101.059,26.1984 103.393,26.5318 105.5,27.5C 102.5,27.5 99.5,27.5 96.5,27.5C 96.8911,23.7793 98.5578,20.7793 101.5,18.5C 104.13,16.3719 106.63,14.0386 109,11.5C 108.778,9.17175 107.612,8.83842 105.5,10.5C 106.552,8.74395 108.219,8.07729 110.5,8.5 Z"/></g>
<g><path style="opacity:0.631" fill="#6a6b6d" d="M 119.5,16.5 C 119.598,18.5529 118.931,20.2196 117.5,21.5C 117.12,19.302 117.787,17.6354 119.5,16.5 Z"/></g>
<g><path style="opacity:1" fill="#0f1d04" d="M 28.5,11.5 C 29.7573,14.4274 31.7573,16.7607 34.5,18.5C 35.5676,19.4345 36.901,19.7678 38.5,19.5C 38.5,18.5 38.5,17.5 38.5,16.5C 39.4511,17.9187 39.7845,19.5853 39.5,21.5C 37.602,20.9035 35.9354,20.9035 34.5,21.5C 33.8333,21.1667 33.1667,20.8333 32.5,20.5C 31.8333,20.1667 31.1667,19.8333 30.5,19.5C 28.9059,16.2358 26.5725,13.5691 23.5,11.5C 23.3691,10.6236 23.7025,9.95689 24.5,9.5C 25.6223,10.6302 26.9557,11.2969 28.5,11.5 Z"/></g>
<g><path style="opacity:0.11" fill="#7d7d7d" d="M 74.5,17.5 C 74.5,17.8333 74.5,18.1667 74.5,18.5C 72.7745,20.2279 71.4411,22.2279 70.5,24.5C 69.609,25.1098 68.609,25.4431 67.5,25.5C 68.4411,21.6194 70.7744,18.9527 74.5,17.5 Z"/></g>
<g><path style="opacity:1" fill="#3f5a22" d="M 94.5,11.5 C 94.8333,11.5 95.1667,11.5 95.5,11.5C 94.9644,14.6981 95.631,17.3647 97.5,19.5C 97.5,19.8333 97.5,20.1667 97.5,20.5C 96.5,20.5 95.5,20.5 94.5,20.5C 94.5,17.5 94.5,14.5 94.5,11.5 Z"/></g>
<g><path style="opacity:1" fill="#8fd060" d="M 114.5,5.5 C 115.152,6.4486 115.486,7.61527 115.5,9C 114.59,13.1369 113.923,17.3036 113.5,21.5C 112.833,21.5 112.167,21.5 111.5,21.5C 111.323,14.8656 110.823,14.8656 110,21.5C 106.639,18.6141 103.805,19.1141 101.5,23C 104.817,23.4983 108.15,23.665 111.5,23.5C 110.928,24.9733 110.095,26.3066 109,27.5C 105.634,26.3025 102.468,24.9691 99.5,23.5C 103.13,19.369 106.963,15.369 111,11.5C 111.74,10.2506 111.573,9.25057 110.5,8.5C 108.958,7.83652 107.291,7.16985 105.5,6.5C 108.428,5.51592 111.428,5.18259 114.5,5.5 Z"/></g>
<g><path style="opacity:1" fill="#4e7134" d="M 92.5,8.5 C 92.5,9.5 92.5,10.5 92.5,11.5C 92.8799,13.698 92.2132,15.3646 90.5,16.5C 90.5,14.8333 90.5,13.1667 90.5,11.5C 89.448,11.3505 88.448,11.5172 87.5,12C 82.1757,16.4776 77.8424,21.6443 74.5,27.5C 73.391,27.5569 72.391,27.8902 71.5,28.5C 72.0128,26.1458 73.1795,24.1458 75,22.5C 79.8846,16.4277 85.7179,11.761 92.5,8.5 Z"/></g>
<g><path style="opacity:1" fill="#040e04" d="M 40.5,12.5 C 41.4767,15.2869 41.81,18.2869 41.5,21.5C 41.6741,23.861 42.0074,26.1944 42.5,28.5C 37.5,28.5 32.5,28.5 27.5,28.5C 26.8333,28.5 26.5,28.1667 26.5,27.5C 30.1667,27.5 33.8333,27.5 37.5,27.5C 37.7271,25.0672 36.7271,23.4006 34.5,22.5C 34.5,22.1667 34.5,21.8333 34.5,21.5C 35.9354,20.9035 37.602,20.9035 39.5,21.5C 39.7845,19.5853 39.4511,17.9187 38.5,16.5C 38.1568,14.5168 38.8235,13.1834 40.5,12.5 Z"/></g>
<g><path style="opacity:1" fill="#94e05a" d="M 111.5,21.5 C 111.5,22.1667 111.5,22.8333 111.5,23.5C 108.15,23.665 104.817,23.4983 101.5,23C 103.805,19.1141 106.639,18.6141 110,21.5C 110.823,14.8656 111.323,14.8656 111.5,21.5 Z"/></g>
<g><path style="opacity:0.882" fill="#39393d" d="M 15.5,21.5 C 17.2413,23.3949 18.2413,25.7282 18.5,28.5C 17.8333,28.5 17.1667,28.5 16.5,28.5C 16.5,27.8333 16.5,27.1667 16.5,26.5C 16.3713,24.7839 16.038,23.1172 15.5,21.5 Z"/></g>
<g><path style="opacity:1" fill="#83bc58" d="M 90.5,16.5 C 90.5,19.1667 90.5,21.8333 90.5,24.5C 89.1001,25.0998 88.1001,26.0998 87.5,27.5C 85.8235,26.8166 85.1568,25.4832 85.5,23.5C 86.2216,23.9175 86.7216,24.5842 87,25.5C 89.4657,21.7746 89.9657,17.7746 88.5,13.5C 84.2322,15.3759 82.8988,18.3759 84.5,22.5C 83.5,22.5 82.5,22.5 81.5,22.5C 80.5,22.8333 79.8333,23.5 79.5,24.5C 78.5,24.5 77.5,24.5 76.5,24.5C 76.7148,26.1788 76.0481,27.1788 74.5,27.5C 77.8424,21.6443 82.1757,16.4776 87.5,12C 88.448,11.5172 89.448,11.3505 90.5,11.5C 90.5,13.1667 90.5,14.8333 90.5,16.5 Z"/></g>
<g><path style="opacity:1" fill="#4f7d2a" d="M 81.5,22.5 C 81.5,22.8333 81.5,23.1667 81.5,23.5C 81.8432,25.4832 81.1765,26.8166 79.5,27.5C 79.5,26.5 79.5,25.5 79.5,24.5C 79.8333,23.5 80.5,22.8333 81.5,22.5 Z"/></g>
<g><path style="opacity:1" fill="#92dd58" d="M 85.5,23.5 C 85.5,22.8333 85.1667,22.5 84.5,22.5C 82.8988,18.3759 84.2322,15.3759 88.5,13.5C 89.9657,17.7746 89.4657,21.7746 87,25.5C 86.7216,24.5842 86.2216,23.9175 85.5,23.5 Z"/></g>
<g><path style="opacity:1" fill="#426e24" d="M 32.5,20.5 C 33.1667,20.8333 33.8333,21.1667 34.5,21.5C 34.5,21.8333 34.5,22.1667 34.5,22.5C 34.5106,24.0174 35.1772,25.1841 36.5,26C 33.1832,26.4983 29.8499,26.665 26.5,26.5C 28.6074,25.5318 30.9407,25.1984 33.5,25.5C 33.3713,23.7839 33.038,22.1172 32.5,20.5 Z"/></g>
<g><path style="opacity:1" fill="#24480b" d="M 17.5,16.5 C 18.1667,17.5 18.8333,18.5 19.5,19.5C 19.2291,21.3797 19.8958,22.713 21.5,23.5C 21.5,24.8333 21.5,26.1667 21.5,27.5C 19.0103,24.3743 17.677,20.7076 17.5,16.5 Z"/></g>
<g><path style="opacity:1" fill="#14350a" d="M 34.5,22.5 C 36.7271,23.4006 37.7271,25.0672 37.5,27.5C 33.8333,27.5 30.1667,27.5 26.5,27.5C 26.5,27.1667 26.5,26.8333 26.5,26.5C 29.8499,26.665 33.1832,26.4983 36.5,26C 35.1772,25.1841 34.5106,24.0174 34.5,22.5 Z"/></g>
<g><path style="opacity:1" fill="#568721" d="M 56.5,22.5 C 57.1667,22.8333 57.8333,23.1667 58.5,23.5C 59.3382,23.8417 59.6716,24.5084 59.5,25.5C 59.5,26.1667 59.5,26.8333 59.5,27.5C 59.1667,27.5 58.8333,27.5 58.5,27.5C 57.8333,25.8333 57.1667,24.1667 56.5,22.5 Z"/></g>
<g><path style="opacity:1" fill="#2e4a10" d="M 59.5,25.5 C 61.2624,26.2623 62.2624,27.5956 62.5,29.5C 61.5,28.8333 60.5,28.1667 59.5,27.5C 59.5,26.8333 59.5,26.1667 59.5,25.5 Z"/></g>
<g><path style="opacity:0.557" fill="#777978" d="M 59.5,17.5 C 62.7109,19.2123 64.5443,21.879 65,25.5C 65.7083,26.3805 66.5416,27.0472 67.5,27.5C 67.1583,28.3382 66.4916,28.6716 65.5,28.5C 63.7481,25.328 61.7481,22.328 59.5,19.5C 59.5,18.8333 59.5,18.1667 59.5,17.5 Z"/></g>
<g><path style="opacity:0.839" fill="#454945" d="M 70.5,24.5 C 70.2969,26.0443 69.6302,27.3777 68.5,28.5C 67.3864,29.7759 66.3864,29.7759 65.5,28.5C 66.4916,28.6716 67.1583,28.3382 67.5,27.5C 67.5,26.8333 67.5,26.1667 67.5,25.5C 68.609,25.4431 69.609,25.1098 70.5,24.5 Z"/></g>
<g><path style="opacity:1" fill="#071104" d="M 97.5,20.5 C 97.5,20.1667 97.5,19.8333 97.5,19.5C 97.5,18.8333 97.8333,18.5 98.5,18.5C 99.1667,18.1667 99.8333,17.8333 100.5,17.5C 101.167,17.5 101.5,17.8333 101.5,18.5C 98.5578,20.7793 96.8911,23.7793 96.5,27.5C 99.5,27.5 102.5,27.5 105.5,27.5C 100.833,28.1667 96.1667,28.8333 91.5,29.5C 89.8333,30.8333 88.1667,32.1667 86.5,33.5C 85.5489,34.9187 85.2155,36.5853 85.5,38.5C 88.5184,38.3354 91.5184,38.502 94.5,39C 89.3165,39.1739 84.3165,39.6739 79.5,40.5C 79.5,40.8333 79.5,41.1667 79.5,41.5C 76.7495,43.7453 74.0828,46.2453 71.5,49C 68.0331,49.3089 67.6998,48.4756 70.5,46.5C 73.9031,44.1002 76.5698,41.1002 78.5,37.5C 79.038,35.8828 79.3713,34.2161 79.5,32.5C 79.5,30.8333 79.5,29.1667 79.5,27.5C 81.1765,26.8166 81.8432,25.4832 81.5,23.5C 83.369,25.6353 84.0356,28.3019 83.5,31.5C 84.791,31.7373 85.791,31.404 86.5,30.5C 88.8218,29.1979 90.1551,27.1979 90.5,24.5C 91.3844,21.9768 92.2177,19.3102 93,16.5C 93.4935,18.1341 93.6602,19.8008 93.5,21.5C 95.099,21.7678 96.4324,21.4345 97.5,20.5 Z"/></g>
<g><path style="opacity:1" fill="#111f03" d="M 41.5,21.5 C 42.9313,22.7804 43.5979,24.4471 43.5,26.5C 43.5569,27.609 43.8902,28.609 44.5,29.5C 43.8333,29.5 43.5,29.8333 43.5,30.5C 38.0313,29.9254 32.6979,29.2588 27.5,28.5C 32.5,28.5 37.5,28.5 42.5,28.5C 42.0074,26.1944 41.6741,23.861 41.5,21.5 Z"/></g>
<g><path style="opacity:1" fill="#749655" d="M 84.5,22.5 C 85.1667,22.5 85.5,22.8333 85.5,23.5C 85.1568,25.4832 85.8235,26.8166 87.5,27.5C 86.8902,28.391 86.5569,29.391 86.5,30.5C 84.631,28.3647 83.9644,25.6981 84.5,22.5 Z"/></g>
<g><path style="opacity:1" fill="#385a22" d="M 21.5,27.5 C 22.4511,28.9187 22.7845,30.5853 22.5,32.5C 21.8333,32.5 21.1667,32.5 20.5,32.5C 20.1667,31.8333 19.8333,31.1667 19.5,30.5C 21.0481,30.1788 21.7148,29.1788 21.5,27.5 Z"/></g>
<g><path style="opacity:1" fill="#4c831b" d="M 48.5,22.5 C 48.8076,24.924 48.4742,27.2573 47.5,29.5C 46.8933,29.3764 46.56,29.0431 46.5,28.5C 47.1667,26.5 47.8333,24.5 48.5,22.5 Z"/></g>
<g><path style="opacity:1" fill="#2b451b" d="M 90.5,24.5 C 90.1551,27.1979 88.8218,29.1979 86.5,30.5C 86.5569,29.391 86.8902,28.391 87.5,27.5C 88.1001,26.0998 89.1001,25.0998 90.5,24.5 Z"/></g>
<g><path style="opacity:1" fill="#19300f" d="M 105.5,27.5 C 107.379,27.3932 107.712,27.8932 106.5,29C 101.511,29.4993 96.5111,29.6659 91.5,29.5C 96.1667,28.8333 100.833,28.1667 105.5,27.5 Z"/></g>
<g><path style="opacity:0.431" fill="#9a9c9b" d="M 16.5,28.5 C 17.1667,28.5 17.8333,28.5 18.5,28.5C 18.3284,29.4916 18.6618,30.1583 19.5,30.5C 19.8333,31.1667 20.1667,31.8333 20.5,32.5C 20.1667,32.5 19.8333,32.5 19.5,32.5C 17.7376,31.7377 16.7376,30.4044 16.5,28.5 Z"/></g>
<g><path style="opacity:1" fill="#376015" d="M 26.5,27.5 C 26.5,28.1667 26.8333,28.5 27.5,28.5C 32.6979,29.2588 38.0313,29.9254 43.5,30.5C 44.1667,31.5 44.8333,32.5 45.5,33.5C 45.1667,33.5 44.8333,33.5 44.5,33.5C 43.1667,32.8333 41.8333,32.1667 40.5,31.5C 36.0181,30.6745 31.3514,30.1745 26.5,30C 25.2264,29.0228 25.2264,28.1894 26.5,27.5 Z"/></g>
<g><path style="opacity:1" fill="#234313" d="M 48.5,22.5 C 49.791,22.2627 50.791,22.596 51.5,23.5C 50.3509,23.7911 49.6842,24.6244 49.5,26C 49.9434,27.825 50.2767,29.6583 50.5,31.5C 48.1417,31.7475 46.1417,31.0808 44.5,29.5C 43.8902,28.609 43.5569,27.609 43.5,26.5C 43.8333,26.5 44.1667,26.5 44.5,26.5C 44.8333,27.5 45.5,28.1667 46.5,28.5C 46.56,29.0431 46.8933,29.3764 47.5,29.5C 48.4742,27.2573 48.8076,24.924 48.5,22.5 Z"/></g>
<g><path style="opacity:1" fill="#3d542a" d="M 81.5,23.5 C 81.5,23.1667 81.5,22.8333 81.5,22.5C 82.5,22.5 83.5,22.5 84.5,22.5C 83.9644,25.6981 84.631,28.3647 86.5,30.5C 85.791,31.404 84.791,31.7373 83.5,31.5C 84.0356,28.3019 83.369,25.6353 81.5,23.5 Z"/></g>
<g><path style="opacity:1" fill="#4c7030" d="M 111.5,21.5 C 112.167,21.5 112.833,21.5 113.5,21.5C 110.685,32.1301 104.685,40.4635 95.5,46.5C 95.5,46.1667 95.5,45.8333 95.5,45.5C 95.8333,44.5 96.5,43.8333 97.5,43.5C 99.1667,42.5 100.5,41.1667 101.5,39.5C 102.5,38.1667 103.5,36.8333 104.5,35.5C 105.5,35.1667 106.167,34.5 106.5,33.5C 107.404,32.791 107.737,31.791 107.5,30.5C 101.974,30.1786 96.6405,30.5119 91.5,31.5C 89.8546,32.4787 88.5213,33.812 87.5,35.5C 90.7683,36.487 94.1016,36.8204 97.5,36.5C 97.7678,38.099 97.4345,39.4324 96.5,40.5C 96.5,39.5 96.5,38.5 96.5,37.5C 93.1667,37.5 89.8333,37.5 86.5,37.5C 86.5,36.1667 86.5,34.8333 86.5,33.5C 88.1667,32.1667 89.8333,30.8333 91.5,29.5C 96.5111,29.6659 101.511,29.4993 106.5,29C 107.712,27.8932 107.379,27.3932 105.5,27.5C 103.393,26.5318 101.059,26.1984 98.5,26.5C 98.2627,25.209 98.596,24.209 99.5,23.5C 102.468,24.9691 105.634,26.3025 109,27.5C 110.095,26.3066 110.928,24.9733 111.5,23.5C 111.5,22.8333 111.5,22.1667 111.5,21.5 Z"/></g>
<g><path style="opacity:1" fill="#76a546" d="M 91.5,31.5 C 96.6405,30.5119 101.974,30.1786 107.5,30.5C 107.737,31.791 107.404,32.791 106.5,33.5C 101.944,31.5583 96.9443,30.8917 91.5,31.5 Z"/></g>
<g><path style="opacity:0.624" fill="#494a4c" d="M 117.5,22.5 C 116.833,24.8333 116.167,27.1667 115.5,29.5C 114.094,29.9731 113.427,30.9731 113.5,32.5C 112.833,32.8333 112.167,33.1667 111.5,33.5C 112.895,30.5995 114.061,27.5995 115,24.5C 115.708,23.6195 116.542,22.9528 117.5,22.5 Z"/></g>
<g><path style="opacity:0.059" fill="#979797" d="M 115.5,29.5 C 115.573,31.0269 114.906,32.0269 113.5,32.5C 113.427,30.9731 114.094,29.9731 115.5,29.5 Z"/></g>
<g><path style="opacity:1" fill="#040e02" d="M 51.5,23.5 C 50.9103,28.6401 51.9103,33.3068 54.5,37.5C 54.8333,38.1667 55.1667,38.8333 55.5,39.5C 54.791,40.404 53.791,40.7373 52.5,40.5C 48.0181,39.6745 43.3514,39.1745 38.5,39C 41.3647,38.8171 44.0314,38.3171 46.5,37.5C 46.7678,35.901 46.4345,34.5676 45.5,33.5C 44.8333,32.5 44.1667,31.5 43.5,30.5C 43.5,29.8333 43.8333,29.5 44.5,29.5C 46.1417,31.0808 48.1417,31.7475 50.5,31.5C 50.2767,29.6583 49.9434,27.825 49.5,26C 49.6842,24.6244 50.3509,23.7911 51.5,23.5 Z"/></g>
<g><path style="opacity:1" fill="#467a20" d="M 48.5,22.5 C 52.8332,20.8243 54.4998,22.4909 53.5,27.5C 55.0233,30.6348 55.69,33.9682 55.5,37.5C 55.1667,37.5 54.8333,37.5 54.5,37.5C 53.491,32.7105 52.491,28.0438 51.5,23.5C 50.791,22.596 49.791,22.2627 48.5,22.5 Z"/></g>
<g><path style="opacity:1" fill="#406a1e" d="M 59.5,27.5 C 60.5,28.1667 61.5,28.8333 62.5,29.5C 63.4013,30.2905 64.0679,31.2905 64.5,32.5C 64.8799,34.698 64.2132,36.3646 62.5,37.5C 62.6621,35.4727 62.4955,33.4727 62,31.5C 60.5187,30.5291 59.6854,29.1958 59.5,27.5 Z"/></g>
<g><path style="opacity:1" fill="#95de60" d="M 104.5,35.5 C 103.5,36.8333 102.5,38.1667 101.5,39.5C 100.5,39.5 99.5,39.5 98.5,39.5C 98.5,37.8333 98.5,36.1667 98.5,34.5C 96.2655,34.3801 94.0989,34.7135 92,35.5C 90.1739,34.9896 90.0072,34.1562 91.5,33C 95.8206,32.501 100.154,32.3343 104.5,32.5C 104.5,33.5 104.5,34.5 104.5,35.5 Z"/></g>
<g><path style="opacity:0.451" fill="#b6d4a5" d="M 19.5,32.5 C 19.8333,32.5 20.1667,32.5 20.5,32.5C 21.1667,32.5 21.8333,32.5 22.5,32.5C 22.8333,33.1667 23.1667,33.8333 23.5,34.5C 23.5,34.8333 23.5,35.1667 23.5,35.5C 22.8333,35.8333 22.1667,36.1667 21.5,36.5C 20.8333,35.1667 20.1667,33.8333 19.5,32.5 Z"/></g>
<g><path style="opacity:1" fill="#60a12d" d="M 30.5,19.5 C 31.1667,19.8333 31.8333,20.1667 32.5,20.5C 33.038,22.1172 33.3713,23.7839 33.5,25.5C 30.9407,25.1984 28.6074,25.5318 26.5,26.5C 26.5,26.8333 26.5,27.1667 26.5,27.5C 25.2264,28.1894 25.2264,29.0228 26.5,30C 31.3514,30.1745 36.0181,30.6745 40.5,31.5C 35.2384,31.8047 30.0717,31.4714 25,30.5C 24.5172,31.448 24.3505,32.448 24.5,33.5C 28.8004,33.8153 30.467,36.1486 29.5,40.5C 29.1667,40.5 28.8333,40.5 28.5,40.5C 28.9807,36.6509 27.314,34.6509 23.5,34.5C 23.1667,33.8333 22.8333,33.1667 22.5,32.5C 22.7845,30.5853 22.4511,28.9187 21.5,27.5C 21.5,26.1667 21.5,24.8333 21.5,23.5C 22.1577,24.3984 22.8243,25.3984 23.5,26.5C 25.0708,23.9066 27.4041,22.9066 30.5,23.5C 30.5,22.1667 30.5,20.8333 30.5,19.5 Z"/></g>
<g><path style="opacity:1" fill="#132d06" d="M 51.5,23.5 C 52.491,28.0438 53.491,32.7105 54.5,37.5C 51.9103,33.3068 50.9103,28.6401 51.5,23.5 Z"/></g>
<g><path style="opacity:1" fill="#61ad2b" d="M 53.5,27.5 C 54.4972,27.4701 55.1639,27.9701 55.5,29C 57.4232,35.977 58.4232,35.477 58.5,27.5C 58.8333,27.5 59.1667,27.5 59.5,27.5C 59.6854,29.1958 60.5187,30.5291 62,31.5C 62.4955,33.4727 62.6621,35.4727 62.5,37.5C 61.3951,38.6005 60.0618,39.2671 58.5,39.5C 57.5,38.8333 56.5,38.1667 55.5,37.5C 55.69,33.9682 55.0233,30.6348 53.5,27.5 Z"/></g>
<g><path style="opacity:1" fill="#2d491b" d="M 71.5,28.5 C 71.5,29.1667 71.5,29.8333 71.5,30.5C 69.7061,32.4282 68.7061,34.7616 68.5,37.5C 68.1667,38.1667 67.8333,38.8333 67.5,39.5C 66.8333,40.1667 66.1667,40.8333 65.5,41.5C 65.366,39.7085 65.6993,38.0418 66.5,36.5C 67.3786,33.2988 69.0453,30.6322 71.5,28.5 Z"/></g>
<g><path style="opacity:1" fill="#36651c" d="M 23.5,35.5 C 23.5,35.1667 23.5,34.8333 23.5,34.5C 27.314,34.6509 28.9807,36.6509 28.5,40.5C 28.1667,40.5 27.8333,40.5 27.5,40.5C 27.7709,38.6203 27.1042,37.287 25.5,36.5C 25.1583,35.6618 24.4916,35.3284 23.5,35.5 Z"/></g>
<g><path style="opacity:1" fill="#6ec32b" d="M 40.5,31.5 C 41.8333,32.1667 43.1667,32.8333 44.5,33.5C 42.4922,35.0826 40.1589,36.0826 37.5,36.5C 35.8958,37.287 35.2291,38.6203 35.5,40.5C 33.7354,41.4614 31.7354,41.7947 29.5,41.5C 29.5,41.1667 29.5,40.8333 29.5,40.5C 30.467,36.1486 28.8004,33.8153 24.5,33.5C 24.3505,32.448 24.5172,31.448 25,30.5C 30.0717,31.4714 35.2384,31.8047 40.5,31.5 Z"/></g>
<g><path style="opacity:1" fill="#548d26" d="M 44.5,33.5 C 44.8333,33.5 45.1667,33.5 45.5,33.5C 45.5,34.5 45.5,35.5 45.5,36.5C 42.8333,36.5 40.1667,36.5 37.5,36.5C 40.1589,36.0826 42.4922,35.0826 44.5,33.5 Z"/></g>
<g><path style="opacity:1" fill="#5b7a37" d="M 79.5,32.5 C 79.3713,34.2161 79.038,35.8828 78.5,37.5C 78.1667,37.5 77.8333,37.5 77.5,37.5C 77.4021,35.4471 78.0687,33.7804 79.5,32.5 Z"/></g>
<g><path style="opacity:1" fill="#7eae55" d="M 71.5,30.5 C 71.8176,33.4815 70.8176,35.8148 68.5,37.5C 68.7061,34.7616 69.7061,32.4282 71.5,30.5 Z"/></g>
<g><path style="opacity:1" fill="#92dd5d" d="M 79.5,24.5 C 79.5,25.5 79.5,26.5 79.5,27.5C 77.7373,30.5 76.5706,33.8334 76,37.5C 73.6506,40.0168 71.1506,42.3501 68.5,44.5C 67.5481,42.9547 67.2148,41.288 67.5,39.5C 67.8333,38.8333 68.1667,38.1667 68.5,37.5C 70.8176,35.8148 71.8176,33.4815 71.5,30.5C 71.5,29.8333 71.5,29.1667 71.5,28.5C 72.391,27.8902 73.391,27.5569 74.5,27.5C 76.0481,27.1788 76.7148,26.1788 76.5,24.5C 77.5,24.5 78.5,24.5 79.5,24.5 Z"/></g>
<g><path style="opacity:0.71" fill="#495747" d="M 23.5,35.5 C 24.4916,35.3284 25.1583,35.6618 25.5,36.5C 24.6618,36.8417 24.3284,37.5084 24.5,38.5C 23.8333,38.5 23.1667,38.5 22.5,38.5C 22.1667,37.8333 21.8333,37.1667 21.5,36.5C 22.1667,36.1667 22.8333,35.8333 23.5,35.5 Z"/></g>
<g><path style="opacity:1" fill="#141f10" d="M 25.5,36.5 C 27.1042,37.287 27.7709,38.6203 27.5,40.5C 25.9731,40.573 24.9731,39.9063 24.5,38.5C 24.3284,37.5084 24.6618,36.8417 25.5,36.5 Z"/></g>
<g><path style="opacity:1" fill="#335715" d="M 54.5,37.5 C 54.8333,37.5 55.1667,37.5 55.5,37.5C 56.5,38.1667 57.5,38.8333 58.5,39.5C 59.8333,42.1667 61.1667,42.1667 62.5,39.5C 62.5,40.5 62.5,41.5 62.5,42.5C 61.1667,42.5 59.8333,42.5 58.5,42.5C 57.8333,41.1667 56.8333,40.1667 55.5,39.5C 55.1667,38.8333 54.8333,38.1667 54.5,37.5 Z"/></g>
<g><path style="opacity:0.443" fill="#878a7f" d="M 22.5,38.5 C 23.1667,38.5 23.8333,38.5 24.5,38.5C 24.9731,39.9063 25.9731,40.573 27.5,40.5C 27.5,41.1667 27.5,41.8333 27.5,42.5C 25.2054,41.8645 23.5387,40.5311 22.5,38.5 Z"/></g>
<g><path style="opacity:1" fill="#101f08" d="M 64.5,32.5 C 65.1667,33.8333 65.8333,35.1667 66.5,36.5C 65.6993,38.0418 65.366,39.7085 65.5,41.5C 65.2041,43.403 64.5375,45.0697 63.5,46.5C 63.1667,46.5 62.8333,46.5 62.5,46.5C 62.5,45.5 62.5,44.5 62.5,43.5C 60.901,43.7678 59.5676,43.4345 58.5,42.5C 59.8333,42.5 61.1667,42.5 62.5,42.5C 62.5,41.5 62.5,40.5 62.5,39.5C 62.5,38.8333 62.5,38.1667 62.5,37.5C 64.2132,36.3646 64.8799,34.698 64.5,32.5 Z"/></g>
<g><path style="opacity:1" fill="#132f08" d="M 46.5,37.5 C 44.0314,38.3171 41.3647,38.8171 38.5,39C 43.3514,39.1745 48.0181,39.6745 52.5,40.5C 47.5,40.5 42.5,40.5 37.5,40.5C 37.5,39.5 37.5,38.5 37.5,37.5C 40.5,37.5 43.5,37.5 46.5,37.5 Z"/></g>
<g><path style="opacity:1" fill="#598631" d="M 62.5,37.5 C 62.5,38.1667 62.5,38.8333 62.5,39.5C 61.1667,42.1667 59.8333,42.1667 58.5,39.5C 60.0618,39.2671 61.3951,38.6005 62.5,37.5 Z"/></g>
<g><path style="opacity:1" fill="#1f3312" d="M 86.5,33.5 C 86.5,34.8333 86.5,36.1667 86.5,37.5C 89.8333,37.5 93.1667,37.5 96.5,37.5C 96.5,38.5 96.5,39.5 96.5,40.5C 96.1667,40.5 95.8333,40.5 95.5,40.5C 90.1667,40.5 84.8333,40.5 79.5,40.5C 84.3165,39.6739 89.3165,39.1739 94.5,39C 91.5184,38.502 88.5184,38.3354 85.5,38.5C 85.2155,36.5853 85.5489,34.9187 86.5,33.5 Z"/></g>
<g><path style="opacity:1" fill="#3b6a1a" d="M 45.5,33.5 C 46.4345,34.5676 46.7678,35.901 46.5,37.5C 43.5,37.5 40.5,37.5 37.5,37.5C 37.5,38.5 37.5,39.5 37.5,40.5C 42.5,40.5 47.5,40.5 52.5,40.5C 52.5,40.8333 52.5,41.1667 52.5,41.5C 46.7414,41.7857 41.0748,41.4524 35.5,40.5C 35.2291,38.6203 35.8958,37.287 37.5,36.5C 40.1667,36.5 42.8333,36.5 45.5,36.5C 45.5,35.5 45.5,34.5 45.5,33.5 Z"/></g>
<g><path style="opacity:1" fill="#85c054" d="M 91.5,31.5 C 96.9443,30.8917 101.944,31.5583 106.5,33.5C 106.167,34.5 105.5,35.1667 104.5,35.5C 104.5,34.5 104.5,33.5 104.5,32.5C 100.154,32.3343 95.8206,32.501 91.5,33C 90.0072,34.1562 90.1739,34.9896 92,35.5C 94.0989,34.7135 96.2655,34.3801 98.5,34.5C 98.5,36.1667 98.5,37.8333 98.5,39.5C 99.5,39.5 100.5,39.5 101.5,39.5C 100.5,41.1667 99.1667,42.5 97.5,43.5C 97.5,42.1667 96.8333,41.5 95.5,41.5C 95.5,41.1667 95.5,40.8333 95.5,40.5C 95.8333,40.5 96.1667,40.5 96.5,40.5C 97.4345,39.4324 97.7678,38.099 97.5,36.5C 94.1016,36.8204 90.7683,36.487 87.5,35.5C 88.5213,33.812 89.8546,32.4787 91.5,31.5 Z"/></g>
<g><path style="opacity:0.835" fill="#b2ca9d" d="M 27.5,40.5 C 27.8333,40.5 28.1667,40.5 28.5,40.5C 28.8333,40.5 29.1667,40.5 29.5,40.5C 29.5,40.8333 29.5,41.1667 29.5,41.5C 29.5,42.1667 29.8333,42.5 30.5,42.5C 30.5,42.8333 30.5,43.1667 30.5,43.5C 30.5,44.1667 30.5,44.8333 30.5,45.5C 29.1667,44.8333 28.1667,43.8333 27.5,42.5C 27.5,41.8333 27.5,41.1667 27.5,40.5 Z"/></g>
<g><path style="opacity:1" fill="#6b9a43" d="M 79.5,40.5 C 84.8333,40.5 90.1667,40.5 95.5,40.5C 95.5,40.8333 95.5,41.1667 95.5,41.5C 89.8667,42.2132 84.2001,42.8798 78.5,43.5C 78.8333,42.8333 79.1667,42.1667 79.5,41.5C 79.5,41.1667 79.5,40.8333 79.5,40.5 Z"/></g>
<g><path style="opacity:1" fill="#264813" d="M 30.5,43.5 C 30.5,43.1667 30.5,42.8333 30.5,42.5C 33.3126,42.0246 35.3126,43.0246 36.5,45.5C 34.8333,44.8333 33.1667,44.1667 31.5,43.5C 31.1667,43.5 30.8333,43.5 30.5,43.5 Z"/></g>
<g><path style="opacity:1" fill="#63a52d" d="M 35.5,40.5 C 41.0748,41.4524 46.7414,41.7857 52.5,41.5C 52.5,41.8333 52.5,42.1667 52.5,42.5C 48.5,42.5 44.5,42.5 40.5,42.5C 37.7524,42.4017 37.0857,43.4017 38.5,45.5C 37.8333,45.5 37.1667,45.5 36.5,45.5C 35.3126,43.0246 33.3126,42.0246 30.5,42.5C 29.8333,42.5 29.5,42.1667 29.5,41.5C 31.7354,41.7947 33.7354,41.4614 35.5,40.5 Z"/></g>
<g><path style="opacity:1" fill="#142f0a" d="M 55.5,39.5 C 56.8333,40.1667 57.8333,41.1667 58.5,42.5C 57.7611,42.369 57.0944,42.5357 56.5,43C 58.1412,44.129 59.1412,45.629 59.5,47.5C 57.5,45.8333 55.5,44.1667 53.5,42.5C 53.1667,42.5 52.8333,42.5 52.5,42.5C 52.5,42.1667 52.5,41.8333 52.5,41.5C 52.5,41.1667 52.5,40.8333 52.5,40.5C 53.791,40.7373 54.791,40.404 55.5,39.5 Z"/></g>
<g><path style="opacity:1" fill="#1b3211" d="M 77.5,37.5 C 77.8333,37.5 78.1667,37.5 78.5,37.5C 76.5698,41.1002 73.9031,44.1002 70.5,46.5C 70.5,46.1667 70.5,45.8333 70.5,45.5C 72.8333,42.8333 75.1667,40.1667 77.5,37.5 Z"/></g>
<g><path style="opacity:0.035" fill="#737073" d="M 113.5,32.5 C 113.392,34.7834 112.559,36.7834 111,38.5C 106.436,44.2537 100.936,48.5871 94.5,51.5C 101.208,46.4589 106.875,40.4589 111.5,33.5C 112.167,33.1667 112.833,32.8333 113.5,32.5 Z"/></g>
<g><path style="opacity:1" fill="#6ec92b" d="M 40.5,42.5 C 43.977,43.3227 47.6437,43.8227 51.5,44C 53.35,47.4659 52.35,49.2993 48.5,49.5C 47.609,48.8902 46.609,48.5569 45.5,48.5C 43.8148,46.1824 41.4815,45.1824 38.5,45.5C 37.0857,43.4017 37.7524,42.4017 40.5,42.5 Z"/></g>
<g><path style="opacity:0.655" fill="#494f4d" d="M 30.5,43.5 C 30.8333,43.5 31.1667,43.5 31.5,43.5C 31.5569,44.609 31.8902,45.609 32.5,46.5C 31.8333,46.5 31.1667,46.5 30.5,46.5C 30.5,46.1667 30.5,45.8333 30.5,45.5C 30.5,44.8333 30.5,44.1667 30.5,43.5 Z"/></g>
<g><path style="opacity:1" fill="#90db59" d="M 95.5,41.5 C 96.8333,41.5 97.5,42.1667 97.5,43.5C 96.5,43.8333 95.8333,44.5 95.5,45.5C 92.8569,46.454 90.1903,47.454 87.5,48.5C 85.2872,48.848 83.2872,49.6813 81.5,51C 79.1902,51.4966 76.8568,51.6633 74.5,51.5C 74.5,50.5 74.5,49.5 74.5,48.5C 75.8333,46.8333 77.1667,45.1667 78.5,43.5C 84.2001,42.8798 89.8667,42.2132 95.5,41.5 Z"/></g>
<g><path style="opacity:1" fill="#73a549" d="M 79.5,27.5 C 79.5,29.1667 79.5,30.8333 79.5,32.5C 78.0687,33.7804 77.4021,35.4471 77.5,37.5C 75.1667,40.1667 72.8333,42.8333 70.5,45.5C 67.4008,46.5327 66.7341,48.5327 68.5,51.5C 67.4168,51.4606 66.4168,51.1272 65.5,50.5C 64.8281,51.9492 64.1614,53.2825 63.5,54.5C 63.5,51.8333 63.5,49.1667 63.5,46.5C 64.5375,45.0697 65.2041,43.403 65.5,41.5C 66.1667,40.8333 66.8333,40.1667 67.5,39.5C 67.2148,41.288 67.5481,42.9547 68.5,44.5C 71.1506,42.3501 73.6506,40.0168 76,37.5C 76.5706,33.8334 77.7373,30.5 79.5,27.5 Z"/></g>
<g><path style="opacity:1" fill="#63b42a" d="M 40.5,42.5 C 44.5,42.5 48.5,42.5 52.5,42.5C 52.8333,42.5 53.1667,42.5 53.5,42.5C 54.7967,44.9929 55.7967,47.6596 56.5,50.5C 53.6463,51.4503 50.9796,51.117 48.5,49.5C 52.35,49.2993 53.35,47.4659 51.5,44C 47.6437,43.8227 43.977,43.3227 40.5,42.5 Z"/></g>
<g><path style="opacity:1" fill="#5a952b" d="M 53.5,42.5 C 55.5,44.1667 57.5,45.8333 59.5,47.5C 59.7947,49.7354 59.4614,51.7354 58.5,53.5C 53.3633,53.5714 49.03,51.9048 45.5,48.5C 46.609,48.5569 47.609,48.8902 48.5,49.5C 50.9796,51.117 53.6463,51.4503 56.5,50.5C 55.7967,47.6596 54.7967,44.9929 53.5,42.5 Z"/></g>
<g><path style="opacity:1" fill="#507c36" d="M 79.5,41.5 C 79.1667,42.1667 78.8333,42.8333 78.5,43.5C 77.1667,45.1667 75.8333,46.8333 74.5,48.5C 72.9468,50.385 70.9468,51.385 68.5,51.5C 66.7341,48.5327 67.4008,46.5327 70.5,45.5C 70.5,45.8333 70.5,46.1667 70.5,46.5C 67.6998,48.4756 68.0331,49.3089 71.5,49C 74.0828,46.2453 76.7495,43.7453 79.5,41.5 Z"/></g>
<g><path style="opacity:1" fill="#72a049" d="M 95.5,45.5 C 95.5,45.8333 95.5,46.1667 95.5,46.5C 91.1667,48.5 86.8333,50.5 82.5,52.5C 84.1667,51.1667 85.8333,49.8333 87.5,48.5C 90.1903,47.454 92.8569,46.454 95.5,45.5 Z"/></g>
<g><path style="opacity:0.482" fill="#77757c" d="M 30.5,46.5 C 31.1667,46.5 31.8333,46.5 32.5,46.5C 35.0892,47.4194 37.0892,49.086 38.5,51.5C 35.3288,50.5638 32.6621,48.8971 30.5,46.5 Z"/></g>
<g><path style="opacity:0.424" fill="#969695" d="M 38.5,51.5 C 40.0269,51.427 41.0269,52.0937 41.5,53.5C 39.9731,53.573 38.9731,52.9063 38.5,51.5 Z"/></g>
<g><path style="opacity:1" fill="#223c12" d="M 95.5,46.5 C 91.3417,51.2369 86.0084,53.9036 79.5,54.5C 79.5,54.1667 79.5,53.8333 79.5,53.5C 80.609,53.4431 81.609,53.1098 82.5,52.5C 86.8333,50.5 91.1667,48.5 95.5,46.5 Z"/></g>
<g><path style="opacity:0.553" fill="#5e5e5f" d="M 94.5,51.5 C 93.713,53.1042 92.3797,53.7709 90.5,53.5C 91.5137,52.3263 92.847,51.6596 94.5,51.5 Z"/></g>
<g><path style="opacity:1" fill="#0a1207" d="M 58.5,42.5 C 59.5676,43.4345 60.901,43.7678 62.5,43.5C 62.5,44.5 62.5,45.5 62.5,46.5C 60.8523,54.6549 59.8523,62.9882 59.5,71.5C 59.5,73.8333 59.5,76.1667 59.5,78.5C 58.5128,73.6946 58.1795,68.6946 58.5,63.5C 58.9746,60.9179 58.3079,58.9179 56.5,57.5C 52.1191,56.162 47.7858,54.8286 43.5,53.5C 42.8333,53.5 42.1667,53.5 41.5,53.5C 41.0269,52.0937 40.0269,51.427 38.5,51.5C 37.0892,49.086 35.0892,47.4194 32.5,46.5C 31.8902,45.609 31.5569,44.609 31.5,43.5C 33.1667,44.1667 34.8333,44.8333 36.5,45.5C 36.9731,46.9063 37.9731,47.573 39.5,47.5C 40.4916,47.3284 41.1583,47.6618 41.5,48.5C 46.4789,52.8296 52.1456,54.4962 58.5,53.5C 59.4614,51.7354 59.7947,49.7354 59.5,47.5C 59.1412,45.629 58.1412,44.129 56.5,43C 57.0944,42.5357 57.7611,42.369 58.5,42.5 Z"/></g>
<g><path style="opacity:1" fill="#274d0c" d="M 41.5,48.5 C 42.8333,48.5 44.1667,48.5 45.5,48.5C 49.03,51.9048 53.3633,53.5714 58.5,53.5C 52.1456,54.4962 46.4789,52.8296 41.5,48.5 Z"/></g>
<g><path style="opacity:1" fill="#62a330" d="M 38.5,45.5 C 41.4815,45.1824 43.8148,46.1824 45.5,48.5C 44.1667,48.5 42.8333,48.5 41.5,48.5C 41.1583,47.6618 40.4916,47.3284 39.5,47.5C 39.1667,46.8333 38.8333,46.1667 38.5,45.5 Z"/></g>
<g><path style="opacity:1" fill="#27490f" d="M 36.5,45.5 C 37.1667,45.5 37.8333,45.5 38.5,45.5C 38.8333,46.1667 39.1667,46.8333 39.5,47.5C 37.9731,47.573 36.9731,46.9063 36.5,45.5 Z"/></g>
<g><path style="opacity:1" fill="#264019" d="M 62.5,46.5 C 62.8333,46.5 63.1667,46.5 63.5,46.5C 63.5,49.1667 63.5,51.8333 63.5,54.5C 62.8826,54.6107 62.3826,54.944 62,55.5C 61.502,58.4816 61.3354,61.4816 61.5,64.5C 60.8333,66.8333 60.1667,69.1667 59.5,71.5C 59.8523,62.9882 60.8523,54.6549 62.5,46.5 Z"/></g>
<g><path style="opacity:1" fill="#577b35" d="M 79.5,53.5 C 79.5,53.8333 79.5,54.1667 79.5,54.5C 76.1933,55.0508 72.8599,55.3841 69.5,55.5C 69.9175,54.7784 70.5842,54.2784 71.5,54C 74.146,53.5026 76.8127,53.3359 79.5,53.5 Z"/></g>
<g><path style="opacity:0.039" fill="#716869" d="M 90.5,53.5 C 89.9522,55.5323 88.6188,56.5323 86.5,56.5C 86.6941,54.0882 88.0274,53.0882 90.5,53.5 Z"/></g>
<g><path style="opacity:0.047" fill="#857f85" d="M 43.5,53.5 C 47.7858,54.8286 52.1191,56.162 56.5,57.5C 57.6857,58.9613 57.6857,60.2946 56.5,61.5C 54.2363,58.7849 51.2363,57.2849 47.5,57C 45.6763,56.34 44.343,55.1733 43.5,53.5 Z"/></g>
<g><path style="opacity:1" fill="#46732a" d="M 69.5,55.5 C 68.8333,56.8333 67.8333,57.8333 66.5,58.5C 66.5,56.5 67.5,55.5 69.5,55.5 Z"/></g>
<g><path style="opacity:0.141" fill="#3b3e3b" d="M 77.5,57.5 C 77.1667,58.1667 76.8333,58.8333 76.5,59.5C 74.3792,59.3253 72.3792,59.6586 70.5,60.5C 70.5,59.8333 70.5,59.1667 70.5,58.5C 72.717,57.6314 75.0504,57.298 77.5,57.5 Z"/></g>
<g><path style="opacity:0.141" fill="#78777c" d="M 85.5,56.5 C 83.1547,59.075 80.1547,60.075 76.5,59.5C 76.8333,58.8333 77.1667,58.1667 77.5,57.5C 79.6663,57.4211 81.6663,56.7545 83.5,55.5C 84.4164,55.5427 85.0831,55.8761 85.5,56.5 Z"/></g>
<g><path style="opacity:0.6" fill="#4d4952" d="M 56.5,57.5 C 58.3079,58.9179 58.9746,60.9179 58.5,63.5C 57.8333,68.8333 57.1667,74.1667 56.5,79.5C 56.5,78.5 56.5,77.5 56.5,76.5C 56.5,71.5 56.5,66.5 56.5,61.5C 57.6857,60.2946 57.6857,58.9613 56.5,57.5 Z"/></g>
<g><path style="opacity:0.949" fill="#514f53" d="M 70.5,60.5 C 70.7693,64.9315 70.436,69.2648 69.5,73.5C 69.1667,73.5 68.8333,73.5 68.5,73.5C 68.335,70.1501 68.5017,66.8168 69,63.5C 69.2321,62.2625 69.7321,61.2625 70.5,60.5 Z"/></g>
<g><path style="opacity:1" fill="#87c65b" d="M 74.5,48.5 C 74.5,49.5 74.5,50.5 74.5,51.5C 76.8568,51.6633 79.1902,51.4966 81.5,51C 83.2872,49.6813 85.2872,48.848 87.5,48.5C 85.8333,49.8333 84.1667,51.1667 82.5,52.5C 81.609,53.1098 80.609,53.4431 79.5,53.5C 76.8127,53.3359 74.146,53.5026 71.5,54C 70.5842,54.2784 69.9175,54.7784 69.5,55.5C 67.5,55.5 66.5,56.5 66.5,58.5C 65.2528,64.6301 64.5862,70.9635 64.5,77.5C 63.1667,77.5 61.8333,77.5 60.5,77.5C 61.1995,73.2022 61.5328,68.8689 61.5,64.5C 61.3354,61.4816 61.502,58.4816 62,55.5C 62.3826,54.944 62.8826,54.6107 63.5,54.5C 64.1614,53.2825 64.8281,51.9492 65.5,50.5C 66.4168,51.1272 67.4168,51.4606 68.5,51.5C 70.9468,51.385 72.9468,50.385 74.5,48.5 Z"/></g>
<g><path style="opacity:0.259" fill="#77757c" d="M 56.5,76.5 C 56.5,77.5 56.5,78.5 56.5,79.5C 55.2022,80.1157 54.2022,80.1157 53.5,79.5C 54.1667,78.1667 55.1667,77.1667 56.5,76.5 Z"/></g>
<g><path style="opacity:1" fill="#304b1b" d="M 66.5,58.5 C 66.5,62.5 66.5,66.5 66.5,70.5C 66.6641,73.1873 66.4974,75.854 66,78.5C 63.7265,79.8112 61.5598,79.8112 59.5,78.5C 61.4147,78.7845 63.0813,78.4511 64.5,77.5C 64.5862,70.9635 65.2528,64.6301 66.5,58.5 Z"/></g>
<g><path style="opacity:0.337" fill="#6a6b6d" d="M 68.5,73.5 C 68.8333,73.5 69.1667,73.5 69.5,73.5C 68.8482,77.5601 70.5149,79.5601 74.5,79.5C 74.5,80.1667 74.5,80.8333 74.5,81.5C 69.139,81.4358 67.139,78.7691 68.5,73.5 Z"/></g>
<g><path style="opacity:0.039" fill="#a09ea1" d="M 74.5,79.5 C 78.5719,81.2076 81.9052,83.8743 84.5,87.5C 83.8333,87.5 83.1667,87.5 82.5,87.5C 80.1162,85.1153 77.4495,83.1153 74.5,81.5C 74.5,80.8333 74.5,80.1667 74.5,79.5 Z"/></g>
<g><path style="opacity:0.192" fill="#5b5d61" d="M 82.5,87.5 C 83.1667,87.5 83.8333,87.5 84.5,87.5C 85.8333,89.5 87.1667,91.5 88.5,93.5C 85.5222,92.5223 83.5222,90.5223 82.5,87.5 Z"/></g>
<g><path style="opacity:0.365" fill="#6f7274" d="M 52.5,79.5 C 48.8638,82.1088 45.3638,85.1088 42,88.5C 41.5363,91.6518 39.703,93.3185 36.5,93.5C 40.3118,87.0169 45.6452,82.3502 52.5,79.5 Z"/></g>
<g><path style="opacity:0.447" fill="#5c5e62" d="M 93.5,93.5 C 96.1085,93.4003 98.4418,94.0669 100.5,95.5C 100.5,96.1667 100.5,96.8333 100.5,97.5C 98.8828,96.962 97.2161,96.6287 95.5,96.5C 94.4489,95.7777 93.7822,94.7777 93.5,93.5 Z"/></g>
<g><path style="opacity:0.51" fill="#565859" d="M 31.5,93.5 C 28.7376,95.7247 25.7376,97.7247 22.5,99.5C 21.1667,101.5 19.8333,103.5 18.5,105.5C 15.1792,106.26 11.8459,106.926 8.5,107.5C 9.10978,106.609 9.44312,105.609 9.5,104.5C 15.0456,105.861 18.7123,103.861 20.5,98.5C 23.8499,95.9892 27.5166,94.3225 31.5,93.5 Z"/></g>
<g><path style="opacity:0.463" fill="#828389" d="M 100.5,95.5 C 102.054,96.693 103.721,97.8596 105.5,99C 106.488,101.167 107.821,103 109.5,104.5C 109.158,105.338 108.492,105.672 107.5,105.5C 105.628,102.418 103.295,99.7514 100.5,97.5C 100.5,96.8333 100.5,96.1667 100.5,95.5 Z"/></g>
<g><path style="opacity:0.812" fill="#413d42" d="M 109.5,104.5 C 111.5,104.5 113.5,104.5 115.5,104.5C 115.5,105.167 115.5,105.833 115.5,106.5C 112.615,106.806 109.948,106.473 107.5,105.5C 108.492,105.672 109.158,105.338 109.5,104.5 Z"/></g>
<g><path style="opacity:0.155" fill="#959395" d="M 115.5,104.5 C 119.734,105.731 122.734,108.398 124.5,112.5C 124.167,112.5 123.833,112.5 123.5,112.5C 121.687,109.353 119.02,107.353 115.5,106.5C 115.5,105.833 115.5,105.167 115.5,104.5 Z"/></g>
<g><path style="opacity:0.235" fill="#7a7679" d="M 9.5,104.5 C 9.44312,105.609 9.10978,106.609 8.5,107.5C 5.94389,108.702 3.61056,110.369 1.5,112.5C 2.8434,108.456 5.51007,105.789 9.5,104.5 Z"/></g>
<g><path style="opacity:1" fill="#1a120f" d="M 70.5,58.5 C 70.5,59.1667 70.5,59.8333 70.5,60.5C 69.7321,61.2625 69.2321,62.2625 69,63.5C 68.5017,66.8168 68.335,70.1501 68.5,73.5C 67.139,78.7691 69.139,81.4358 74.5,81.5C 77.4495,83.1153 80.1162,85.1153 82.5,87.5C 83.5222,90.5223 85.5222,92.5223 88.5,93.5C 90.1667,93.5 91.8333,93.5 93.5,93.5C 93.7822,94.7777 94.4489,95.7777 95.5,96.5C 97.2161,96.6287 98.8828,96.962 100.5,97.5C 103.295,99.7514 105.628,102.418 107.5,105.5C 109.948,106.473 112.615,106.806 115.5,106.5C 119.02,107.353 121.687,109.353 123.5,112.5C 123.666,116.514 123.499,120.514 123,124.5C 118.516,129.096 113.016,130.763 106.5,129.5C 106.53,128.503 106.03,127.836 105,127.5C 103.301,128.704 101.801,130.038 100.5,131.5C 98.3812,131.468 97.0478,132.468 96.5,134.5C 91.8333,135.833 87.1667,135.833 82.5,134.5C 80.5439,133.508 78.5439,132.508 76.5,131.5C 76.1667,131.5 75.8333,131.5 75.5,131.5C 75.5299,130.503 75.0299,129.836 74,129.5C 72.1418,130.606 70.3085,131.606 68.5,132.5C 64.5,132.5 60.5,132.5 56.5,132.5C 54.2866,130.688 51.9533,130.355 49.5,131.5C 43.4925,134.089 37.1591,135.089 30.5,134.5C 28.5439,133.508 26.5439,132.508 24.5,131.5C 24.1667,131.5 23.8333,131.5 23.5,131.5C 23.6309,130.624 23.2975,129.957 22.5,129.5C 21.3132,128.347 20.3132,128.347 19.5,129.5C 18.8333,129.5 18.1667,129.5 17.5,129.5C 13.8183,129.665 10.1516,129.499 6.5,129C 1.95167,124.868 0.284999,119.701 1.5,113.5C 1.5,113.167 1.5,112.833 1.5,112.5C 3.61056,110.369 5.94389,108.702 8.5,107.5C 11.8459,106.926 15.1792,106.26 18.5,105.5C 19.8333,103.5 21.1667,101.5 22.5,99.5C 25.7376,97.7247 28.7376,95.7247 31.5,93.5C 33.1667,93.5 34.8333,93.5 36.5,93.5C 39.703,93.3185 41.5363,91.6518 42,88.5C 45.3638,85.1088 48.8638,82.1088 52.5,79.5C 52.8333,79.5 53.1667,79.5 53.5,79.5C 54.2022,80.1157 55.2022,80.1157 56.5,79.5C 57.1667,74.1667 57.8333,68.8333 58.5,63.5C 58.1795,68.6946 58.5128,73.6946 59.5,78.5C 61.5598,79.8112 63.7265,79.8112 66,78.5C 66.4974,75.854 66.6641,73.1873 66.5,70.5C 67.271,67.1542 67.9376,63.6542 68.5,60C 68.8361,58.9701 69.5028,58.4701 70.5,58.5 Z"/></g>
<g><path style="opacity:1" fill="#794508" d="M 97.5,117.5 C 97.7947,119.735 97.4614,121.735 96.5,123.5C 96.6621,121.473 96.4955,119.473 96,117.5C 94.4447,115.485 92.6114,115.152 90.5,116.5C 95.0168,120.61 94.3501,122.943 88.5,123.5C 88.5,122.5 88.5,121.5 88.5,120.5C 87.5,120.5 86.5,120.5 85.5,120.5C 85.0246,123.313 86.0246,125.313 88.5,126.5C 88.5,126.833 88.5,127.167 88.5,127.5C 88.1667,127.5 87.8333,127.5 87.5,127.5C 84.2942,125.416 82.9609,122.416 83.5,118.5C 83.8333,118.5 84.1667,118.5 84.5,118.5C 87.1556,116.85 89.8223,115.184 92.5,113.5C 94.7615,114.095 96.4281,115.429 97.5,117.5 Z"/></g>
<g><path style="opacity:1" fill="#190a00" d="M 96.5,123.5 C 96.5,123.833 96.5,124.167 96.5,124.5C 94.1175,126.046 91.4509,126.713 88.5,126.5C 86.0246,125.313 85.0246,123.313 85.5,120.5C 86.5,120.5 87.5,120.5 88.5,120.5C 88.5,121.5 88.5,122.5 88.5,123.5C 94.3501,122.943 95.0168,120.61 90.5,116.5C 92.6114,115.152 94.4447,115.485 96,117.5C 96.4955,119.473 96.6621,121.473 96.5,123.5 Z"/></g>
<g><path style="opacity:1" fill="#673c0a" d="M 118.5,111.5 C 122.546,116.463 122.213,121.297 117.5,126C 116.552,126.483 115.552,126.649 114.5,126.5C 115.167,125.833 115.833,125.167 116.5,124.5C 117.458,124.047 118.292,123.381 119,122.5C 119.678,118.779 119.511,115.112 118.5,111.5 Z"/></g>
<g><path style="opacity:1" fill="#5d390b" d="M 21.5,107.5 C 21.5858,108.496 21.2524,109.329 20.5,110C 16.5,110.333 12.5,110.667 8.5,111C 6.07127,114.041 5.07127,117.541 5.5,121.5C 2.61697,117.295 3.28363,113.462 7.5,110C 11.5,109.667 15.5,109.333 19.5,109C 20.0442,108.283 20.7109,107.783 21.5,107.5 Z"/></g>
<g><path style="opacity:1" fill="#c67306" d="M 98.5,102.5 C 99.391,103.11 100.391,103.443 101.5,103.5C 102.546,106.127 103.88,108.627 105.5,111C 109.109,110.762 112.775,110.595 116.5,110.5C 117.167,110.833 117.833,111.167 118.5,111.5C 119.511,115.112 119.678,118.779 119,122.5C 118.292,123.381 117.458,124.047 116.5,124.5C 112.246,124.92 108.246,124.253 104.5,122.5C 102.595,123.065 100.929,124.065 99.5,125.5C 98.8324,122.694 98.1657,120.028 97.5,117.5C 96.4281,115.429 94.7615,114.095 92.5,113.5C 89.8223,115.184 87.1556,116.85 84.5,118.5C 86.5937,116.449 86.927,114.116 85.5,111.5C 90.8571,111.364 96.1904,110.531 101.5,109C 97.3966,108.292 96.3966,106.126 98.5,102.5 Z"/></g>
<g><path style="opacity:1" fill="#75450b" d="M 101.5,103.5 C 103.634,104.703 104.968,106.537 105.5,109C 109.356,109.177 113.023,109.677 116.5,110.5C 112.775,110.595 109.109,110.762 105.5,111C 103.88,108.627 102.546,106.127 101.5,103.5 Z"/></g>
<g><path style="opacity:1" fill="#5a3208" d="M 43.5,92.5 C 42.3702,94.3146 41.7036,96.3146 41.5,98.5C 37.8183,98.3347 34.1516,98.5014 30.5,99C 29.944,99.3826 29.6107,99.8826 29.5,100.5C 26.5691,102.091 23.9024,104.091 21.5,106.5C 25.397,98.6484 31.7303,95.6484 40.5,97.5C 40.2729,95.0672 41.2729,93.4006 43.5,92.5 Z"/></g>
<g><path style="opacity:1" fill="#87500d" d="M 84.5,98.5 C 84.5,98.1667 84.5,97.8333 84.5,97.5C 87.8499,97.335 91.1832,97.5017 94.5,98C 95.4709,99.4813 96.8042,100.315 98.5,100.5C 99.8333,101.167 100.833,102.167 101.5,103.5C 100.391,103.443 99.391,103.11 98.5,102.5C 94.573,99.0731 89.9063,97.7397 84.5,98.5 Z"/></g>
<g><path style="opacity:1" fill="#301702" d="M 84.5,97.5 C 84.5,97.1667 84.5,96.8333 84.5,96.5C 88.1667,96.5 91.8333,96.5 95.5,96.5C 96.5,97.8333 97.5,99.1667 98.5,100.5C 96.8042,100.315 95.4709,99.4813 94.5,98C 91.1832,97.5017 87.8499,97.335 84.5,97.5 Z"/></g>
<g><path style="opacity:1" fill="#5a3204" d="M 82.5,93.5 C 83.9063,93.9731 84.573,94.9731 84.5,96.5C 83.0937,96.0269 82.427,95.0269 82.5,93.5 Z"/></g>
<g><path style="opacity:1" fill="#c87203" d="M 84.5,98.5 C 89.9063,97.7397 94.573,99.0731 98.5,102.5C 96.3966,106.126 97.3966,108.292 101.5,109C 96.1904,110.531 90.8571,111.364 85.5,111.5C 86.927,114.116 86.5937,116.449 84.5,118.5C 84.1667,118.5 83.8333,118.5 83.5,118.5C 82.79,120.893 82.1233,123.393 81.5,126C 80.5,126.667 79.5,126.667 78.5,126C 75.9566,122.716 73.6233,122.883 71.5,126.5C 65.7945,126.829 60.1278,126.495 54.5,125.5C 48.5847,114.807 49.918,104.973 58.5,96C 64.4654,91.7337 71.132,90.4004 78.5,92C 78.3371,95.691 80.3371,97.8577 84.5,98.5 Z"/></g>
<g><path style="opacity:1" fill="#6b3e05" d="M 66.5,112.5 C 65.8476,111.551 65.5143,110.385 65.5,109C 68.5109,101.344 73.0109,100.51 79,106.5C 80.3273,114.836 76.8273,118.003 68.5,116C 67.1772,115.184 66.5106,114.017 66.5,112.5 Z"/></g>
<g><path style="opacity:1" fill="#1b0c00" d="M 66.5,112.5 C 66.2878,106.215 69.2878,103.715 75.5,105C 79.5,108.333 79.5,111.667 75.5,115C 71.9003,116.073 68.9003,115.24 66.5,112.5 Z"/></g>
<g><path style="opacity:1" fill="#5a3512" d="M 70.5,108.5 C 71.5676,107.566 72.901,107.232 74.5,107.5C 74.5,109.167 74.5,110.833 74.5,112.5C 72.8333,112.5 71.1667,112.5 69.5,112.5C 69.2322,110.901 69.5655,109.568 70.5,108.5 Z"/></g>
<g><path style="opacity:1" fill="#93591c" d="M 70.5,108.5 C 71.5,108.5 72.5,108.5 73.5,108.5C 73.5,109.5 73.5,110.5 73.5,111.5C 72.5,111.5 71.5,111.5 70.5,111.5C 70.5,110.5 70.5,109.5 70.5,108.5 Z"/></g>
<g><path style="opacity:1" fill="#975d0d" d="M 49.5,86.5 C 50.8333,86.5 52.1667,86.5 53.5,86.5C 53.5858,87.4959 53.2524,88.3292 52.5,89C 49.7244,89.0657 47.5577,90.2324 46,92.5C 45.2689,94.8987 44.1022,97.0653 42.5,99C 38.2486,100.195 33.9152,100.695 29.5,100.5C 29.6107,99.8826 29.944,99.3826 30.5,99C 34.1516,98.5014 37.8183,98.3347 41.5,98.5C 41.7036,96.3146 42.3702,94.3146 43.5,92.5C 45.8333,90.8333 47.8333,88.8333 49.5,86.5 Z"/></g>
<g><path style="opacity:1" fill="#562e04" d="M 49.5,86.5 C 47.8333,88.8333 45.8333,90.8333 43.5,92.5C 44.5,89.5 46.5,87.5 49.5,86.5 Z"/></g>
<g><path style="opacity:1" fill="#603909" d="M 74.5,85.5 C 78.1884,87.1884 80.8551,89.855 82.5,93.5C 79.4246,91.0914 76.7579,88.4247 74.5,85.5 Z"/></g>
<g><path style="opacity:1" fill="#a96102" d="M 73.5,85.5 C 73.8333,85.5 74.1667,85.5 74.5,85.5C 76.7579,88.4247 79.4246,91.0914 82.5,93.5C 82.427,95.0269 83.0937,96.0269 84.5,96.5C 84.5,96.8333 84.5,97.1667 84.5,97.5C 84.5,97.8333 84.5,98.1667 84.5,98.5C 80.3371,97.8577 78.3371,95.691 78.5,92C 71.132,90.4004 64.4654,91.7337 58.5,96C 49.918,104.973 48.5847,114.807 54.5,125.5C 60.1278,126.495 65.7945,126.829 71.5,126.5C 68.9831,127.973 66.1498,128.64 63,128.5C 59.8136,128.256 56.647,127.923 53.5,127.5C 52.8333,127.5 52.5,127.167 52.5,126.5C 50.7211,124.656 48.3878,123.99 45.5,124.5C 45.5,125.833 45.5,127.167 45.5,128.5C 36.4144,131.685 29.0811,129.518 23.5,122C 20.4495,121.143 17.7828,121.81 15.5,124C 13.5273,124.495 11.5273,124.662 9.5,124.5C 8.60895,123.89 7.60895,123.557 6.5,123.5C 5.66175,123.158 5.32842,122.492 5.5,121.5C 5.07127,117.541 6.07127,114.041 8.5,111C 12.5,110.667 16.5,110.333 20.5,110C 21.2524,109.329 21.5858,108.496 21.5,107.5C 21.5,107.167 21.5,106.833 21.5,106.5C 23.9024,104.091 26.5691,102.091 29.5,100.5C 33.9152,100.695 38.2486,100.195 42.5,99C 44.1022,97.0653 45.2689,94.8987 46,92.5C 47.5577,90.2324 49.7244,89.0657 52.5,89C 53.2524,88.3292 53.5858,87.4959 53.5,86.5C 56.0561,84.5553 59.0561,83.5553 62.5,83.5C 66.3319,83.4548 69.9986,84.1215 73.5,85.5 Z"/></g>
<g><path style="opacity:1" fill="#693f0c" d="M 73.5,85.5 C 69.9986,84.1215 66.3319,83.4548 62.5,83.5C 59.0561,83.5553 56.0561,84.5553 53.5,86.5C 52.1667,86.5 50.8333,86.5 49.5,86.5C 50.7898,85.0652 52.4565,84.0652 54.5,83.5C 59.8023,82.3372 65.1357,82.1705 70.5,83C 71.5707,83.8518 72.5707,84.6851 73.5,85.5 Z"/></g>
<g><path style="opacity:1" fill="#4e7332" d="M 61.5,64.5 C 61.5328,68.8689 61.1995,73.2022 60.5,77.5C 61.8333,77.5 63.1667,77.5 64.5,77.5C 63.0813,78.4511 61.4147,78.7845 59.5,78.5C 59.5,76.1667 59.5,73.8333 59.5,71.5C 60.1667,69.1667 60.8333,66.8333 61.5,64.5 Z"/></g>
<g><path style="opacity:1" fill="#553107" d="M 21.5,123.5 C 24.7642,125.094 27.4309,127.427 29.5,130.5C 26.2358,128.906 23.5691,126.573 21.5,123.5 Z"/></g>
<g><path style="opacity:0.471" fill="#727277" d="M 1.5,113.5 C 0.284999,119.701 1.95167,124.868 6.5,129C 10.1516,129.499 13.8183,129.665 17.5,129.5C 3.88997,132.557 -1.44337,127.223 1.5,113.5 Z"/></g>
<g><path style="opacity:1" fill="#8a540d" d="M 52.5,126.5 C 49.509,126.166 47.1757,127.166 45.5,129.5C 40.213,130.342 34.8797,130.676 29.5,130.5C 27.4309,127.427 24.7642,125.094 21.5,123.5C 19.9382,123.733 18.6049,124.4 17.5,125.5C 14.6146,125.806 11.9479,125.473 9.5,124.5C 11.5273,124.662 13.5273,124.495 15.5,124C 17.7828,121.81 20.4495,121.143 23.5,122C 29.0811,129.518 36.4144,131.685 45.5,128.5C 45.5,127.167 45.5,125.833 45.5,124.5C 48.3878,123.99 50.7211,124.656 52.5,126.5 Z"/></g>
<g><path style="opacity:1" fill="#522f06" d="M 6.5,123.5 C 7.60895,123.557 8.60895,123.89 9.5,124.5C 11.9479,125.473 14.6146,125.806 17.5,125.5C 13.1673,128.611 9.50064,127.944 6.5,123.5 Z"/></g>
<g><path style="opacity:1" fill="#512902" d="M 96.5,124.5 C 94.6086,127.172 91.9419,128.172 88.5,127.5C 88.5,127.167 88.5,126.833 88.5,126.5C 91.4509,126.713 94.1175,126.046 96.5,124.5 Z"/></g>
<g><path style="opacity:1" fill="#462304" d="M 107.5,125.5 C 109.764,126.219 112.097,126.552 114.5,126.5C 113.726,127.147 112.726,127.48 111.5,127.5C 109.645,127.66 108.312,126.993 107.5,125.5 Z"/></g>
<g><path style="opacity:0.525" fill="#666769" d="M 123.5,112.5 C 123.833,112.5 124.167,112.5 124.5,112.5C 126.699,127.309 120.699,132.976 106.5,129.5C 113.016,130.763 118.516,129.096 123,124.5C 123.499,120.514 123.666,116.514 123.5,112.5 Z"/></g>
<g><path style="opacity:1" fill="#532d07" d="M 71.5,126.5 C 73.4147,126.216 75.0813,126.549 76.5,127.5C 69.6161,129.325 62.6161,129.825 55.5,129C 54.5842,128.722 53.9175,128.222 53.5,127.5C 56.647,127.923 59.8136,128.256 63,128.5C 66.1498,128.64 68.9831,127.973 71.5,126.5 Z"/></g>
<g><path style="opacity:1" fill="#48260b" d="M 76.5,127.5 C 78.0269,127.427 79.0269,128.094 79.5,129.5C 77.9731,129.573 76.9731,128.906 76.5,127.5 Z"/></g>
<g><path style="opacity:1" fill="#b86c0b" d="M 83.5,118.5 C 82.9609,122.416 84.2942,125.416 87.5,127.5C 89.2922,128.309 91.2922,128.809 93.5,129C 90.1832,129.498 86.8499,129.665 83.5,129.5C 82.1667,129.5 80.8333,129.5 79.5,129.5C 79.0269,128.094 78.0269,127.427 76.5,127.5C 75.0813,126.549 73.4147,126.216 71.5,126.5C 73.6233,122.883 75.9566,122.716 78.5,126C 79.5,126.667 80.5,126.667 81.5,126C 82.1233,123.393 82.79,120.893 83.5,118.5 Z"/></g>
<g><path style="opacity:1" fill="#9c5f0d" d="M 97.5,117.5 C 98.1657,120.028 98.8324,122.694 99.5,125.5C 100.929,124.065 102.595,123.065 104.5,122.5C 108.246,124.253 112.246,124.92 116.5,124.5C 115.833,125.167 115.167,125.833 114.5,126.5C 112.097,126.552 109.764,126.219 107.5,125.5C 106.518,124.859 105.518,124.193 104.5,123.5C 101.458,126.345 98.1248,128.679 94.5,130.5C 90.6286,130.815 86.9619,130.482 83.5,129.5C 86.8499,129.665 90.1832,129.498 93.5,129C 91.2922,128.809 89.2922,128.309 87.5,127.5C 87.8333,127.5 88.1667,127.5 88.5,127.5C 91.9419,128.172 94.6086,127.172 96.5,124.5C 96.5,124.167 96.5,123.833 96.5,123.5C 97.4614,121.735 97.7947,119.735 97.5,117.5 Z"/></g>
<g><path style="opacity:0.243" fill="#727176" d="M 19.5,129.5 C 20.3132,128.347 21.3132,128.347 22.5,129.5C 23.2975,129.957 23.6309,130.624 23.5,131.5C 21.9382,131.267 20.6049,130.6 19.5,129.5 Z"/></g>
<g><path style="opacity:0.039" fill="#919195" d="M 106.5,129.5 C 104.947,131.385 102.947,132.385 100.5,132.5C 100.5,132.167 100.5,131.833 100.5,131.5C 101.801,130.038 103.301,128.704 105,127.5C 106.03,127.836 106.53,128.503 106.5,129.5 Z"/></g>
<g><path style="opacity:1" fill="#613a0c" d="M 45.5,129.5 C 45.0825,130.222 44.4158,130.722 43.5,131C 38.6478,131.815 33.9811,131.648 29.5,130.5C 34.8797,130.676 40.213,130.342 45.5,129.5 Z"/></g>
<g><path style="opacity:0.741" fill="#6a7178" d="M 75.5,131.5 C 73.2362,132.219 70.9029,132.552 68.5,132.5C 70.3085,131.606 72.1418,130.606 74,129.5C 75.0299,129.836 75.5299,130.503 75.5,131.5 Z"/></g>
<g><path style="opacity:1" fill="#734703" d="M 79.5,129.5 C 80.8333,129.5 82.1667,129.5 83.5,129.5C 86.9619,130.482 90.6286,130.815 94.5,130.5C 90.0189,131.648 85.3522,131.815 80.5,131C 79.944,130.617 79.6107,130.117 79.5,129.5 Z"/></g>
<g><path style="opacity:0.635" fill="#6a6d6f" d="M 49.5,131.5 C 48.2644,133.828 46.2644,134.994 43.5,135C 38.9796,135.814 34.6463,135.647 30.5,134.5C 37.1591,135.089 43.4925,134.089 49.5,131.5 Z"/></g>
<g><path style="opacity:0.694" fill="#727780" d="M 49.5,131.5 C 51.9533,130.355 54.2866,130.688 56.5,132.5C 54.139,132.326 51.8056,131.993 49.5,131.5 Z"/></g>
<g><path style="opacity:0.769" fill="#656261" d="M 100.5,131.5 C 100.5,131.833 100.5,132.167 100.5,132.5C 99.3951,133.6 98.0618,134.267 96.5,134.5C 97.0478,132.468 98.3812,131.468 100.5,131.5 Z"/></g>
<g><path style="opacity:0.635" fill="#676a6d" d="M 24.5,131.5 C 26.5439,132.508 28.5439,133.508 30.5,134.5C 27.6874,134.975 25.6874,133.975 24.5,131.5 Z"/></g>
<g><path style="opacity:0.608" fill="#636863" d="M 76.5,131.5 C 78.5439,132.508 80.5439,133.508 82.5,134.5C 79.6874,134.975 77.6874,133.975 76.5,131.5 Z"/></g>
</svg>
